<svg width="200" height="200" viewBox="0 0 200 200" fill="none" xmlns="http://www.w3.org/2000/svg">
<path d="M82 200V0" stroke="black" stroke-width="10"/>
<path d="M2 5L140 5" stroke="black" stroke-width="10"/>
<path d="M82 90L140 90" stroke="black" stroke-width="10"/>
<path d="M82 195H140" stroke="black" stroke-width="10"/>
<path d="M140 0C146.303 7.43849e-08 152.545 1.22862 158.369 3.61572C164.192 6.00282 169.484 9.50165 173.941 13.9124C178.398 18.3232 181.934 23.5596 184.346 29.3225C186.758 35.0855 188 41.2622 188 47.5C188 53.7378 186.758 59.9145 184.346 65.6775C181.934 71.4404 178.398 76.6768 173.941 81.0876C169.484 85.4984 164.192 88.9972 158.369 91.3843C152.545 93.7714 146.303 95 140 95L140 84.9956C144.976 84.9956 149.903 84.0258 154.5 82.1414C159.097 80.2571 163.274 77.4952 166.792 74.0134C170.311 70.5316 173.102 66.3981 175.006 61.849C176.91 57.2998 177.89 52.424 177.89 47.5C177.89 42.576 176.91 37.7002 175.006 33.1511C173.102 28.6019 170.311 24.4684 166.792 20.9866C163.274 17.5048 159.097 14.7429 154.5 12.8586C149.903 10.9742 144.976 10.0044 140 10.0044L140 0Z" fill="black"/>
<path d="M139.5 85C147.051 85 154.528 86.4873 161.504 89.3769C168.481 92.2666 174.819 96.502 180.159 101.841C185.498 107.181 189.733 113.519 192.623 120.496C195.513 127.472 197 134.949 197 142.5C197 150.051 195.513 157.528 192.623 164.504C189.733 171.481 185.498 177.819 180.159 183.159C174.819 188.498 168.481 192.733 161.504 195.623C154.528 198.513 147.051 200 139.5 200L139.5 190.006C145.739 190.006 151.916 188.778 157.68 186.39C163.444 184.003 168.681 180.503 173.092 176.092C177.503 171.681 181.003 166.444 183.39 160.68C185.778 154.916 187.006 148.739 187.006 142.5C187.006 136.261 185.778 130.084 183.39 124.32C181.003 118.556 177.503 113.319 173.092 108.908C168.681 104.497 163.444 100.997 157.68 98.6098C151.916 96.2224 145.739 94.9936 139.5 94.9936L139.5 85Z" fill="black"/>
</svg>
